<svg width="202" height="182" viewBox="0 0 202 182" fill="none" xmlns="http://www.w3.org/2000/svg">
    <path opacity="0.14" d="M101 181C156.781 181 202 168.688 202 153.5C202 138.312 156.781 126 101 126C45.2192 126 0 138.312 0 153.5C0 168.688 45.2192 181 101 181Z" fill="#854FC8" />
    <path opacity="0.3" d="M101 165.286C129.977 165.286 153.468 160.009 153.468 153.5C153.468 146.991 129.977 141.714 101 141.714C72.023 141.714 48.5325 146.991 48.5325 153.5C48.5325 160.009 72.023 165.286 101 165.286Z" fill="#854FC8" />
    <path fillRule="evenodd" clipRule="evenodd" d="M119.958 22.75H82.0418L74.4584 30.3333H47.9167V45.5H154.083V30.3333H127.542L119.958 22.75ZM131.333 68.25V144.083H70.6668V68.25H131.333ZM55.5001 53.0833H146.5V144.083C146.5 152.425 139.675 159.25 131.333 159.25H70.6668C62.3251 159.25 55.5001 152.425 55.5001 144.083V53.0833Z" fill="#5DBCD2" />
</svg>